<svg width="271" height="265" viewBox="0 0 271 265" fill="none" xmlns="http://www.w3.org/2000/svg">
<path d="M78.3062 20.4781C53.0952 35.1819 32.8554 57.6987 18.7166 83.2728C6.40166 105.531 -1.58773 131.153 1.76943 156.388C3.91607 172.547 10.6627 187.914 19.9917 201.276C43.4272 234.792 82.5671 255.093 122.837 261.903C136.362 264.184 150.34 265.073 163.752 262.145C187.091 257.034 206.33 241.004 224.326 225.248C236.964 214.184 249.699 202.731 258.092 188.173C274.054 160.496 271.875 125.848 263.741 94.9355C257.22 70.1865 246.842 45.8095 229.088 27.4013C211.366 8.99321 185.477 -1.52109 160.121 1.51997C139.284 4.02723 103.517 5.77422 78.3062 20.4781Z" stroke="#1D1D1B" stroke-miterlimit="10"/>
</svg>
